<svg width="590" height="362" viewBox="0 0 590 362" fill="none" xmlns="http://www.w3.org/2000/svg">
<path d="M103.083 326.74C20.6686 302.271 -27.0761 244.922 61.88 157.276C150.881 69.5847 269.926 -20.0491 349.756 14.6479C429.586 49.2996 422.403 93.1678 510.094 156.598C597.74 220.074 577.455 270.447 561.778 295.973C546.056 321.499 506.52 334.712 427.602 348.088C348.684 361.464 185.496 351.209 103.083 326.74Z" fill="#E6F6FC"/>
<mask id="mask0_504_2074" style="mask-type:alpha" maskUnits="userSpaceOnUse" x="14" y="-67" width="562" height="421">
<path d="M102.993 326.43C20.5788 301.961 -27.1659 244.612 61.7901 156.966C150.791 69.2752 151.17 -97.006 231 -62.3091C276.614 -42.5096 396.561 16.9923 452.5 66.1909C494.462 103.097 472.418 129.101 510.004 156.289C597.65 219.764 577.365 270.138 561.688 295.664C545.966 321.189 506.43 334.402 427.512 347.778C348.594 361.154 185.407 350.899 102.993 326.43Z" fill="#E6F6FC"/>
</mask>
<g mask="url(#mask0_504_2074)">
<path d="M143.217 142.083C116.017 145.883 66.1172 175.383 45.0172 199.583C23.8172 223.783 -6.38275 307.683 -16.9827 326.583C-27.5828 345.483 -90.4828 405.483 -90.4828 405.483C-90.4828 405.483 -91.0828 415.783 -79.7828 422.583C-68.3828 429.383 -51.7828 431.583 -51.7828 431.583C-51.7828 431.583 1.91718 393.083 19.3172 374.883C36.6172 356.783 64.6172 292.483 64.6172 292.483L76.7172 327.283L232.417 334.883L238.517 318.983C238.517 318.983 261.917 370.383 274.817 388.483C287.617 406.683 308.017 428.583 308.017 428.583L374.517 426.283C374.517 426.283 320.117 352.283 309.517 314.483C298.917 276.683 282.317 210.083 252.817 185.983C223.417 161.783 201.417 145.883 187.117 144.383C172.717 142.883 143.217 142.083 143.217 142.083Z" fill="#006491"/>
<path d="M258.916 240.783C259.516 232.283 270.416 220.683 275.316 215.883C277.488 219.971 279.56 224.262 281.538 228.691C259.968 250.291 246.878 304.358 243.029 328.691C240.248 322.788 238.516 318.983 238.516 318.983C244.916 303.483 258.116 251.683 258.916 240.783Z" fill="#005583"/>
<path d="M39.2154 207.283C43.7154 226.783 58.8154 276.083 64.6154 292.483C64.6154 292.483 61.9321 298.645 57.7137 307.691C52.1922 269.691 37.1821 234.858 30.3672 222.191C33.3819 216.606 36.3509 211.552 39.2154 207.283Z" fill="#005583"/>
<path d="M410.116 176.483C424.816 176.083 456.216 185.983 475.416 202.183C492.116 216.183 515.516 251.283 524.616 279.683C533.616 307.983 539.716 338.583 539.716 338.583L551.416 355.683C551.416 355.683 551.816 358.283 542.016 369.283C532.116 380.183 520.416 390.083 520.416 390.083C520.416 390.083 514.016 383.983 510.616 382.483C507.216 380.983 492.516 366.183 483.416 344.683C474.316 323.183 468.316 307.283 468.316 307.283C468.316 307.283 464.916 315.983 460.716 321.983C456.516 328.083 454.716 338.483 452.616 339.383L335.216 346.183C335.216 346.183 324.616 336.383 320.516 331.483C316.316 326.583 312.916 318.183 312.916 318.183C312.916 318.183 296.316 348.483 288.716 360.583C281.216 372.683 269.016 392.783 261.816 394.683C254.616 396.583 253.116 400.383 253.116 400.383C253.116 400.383 250.216 388.883 241.916 380.983C233.616 372.983 224.916 362.083 224.916 362.083L241.116 349.583C241.116 349.583 257.016 311.383 271.716 278.583C286.516 245.683 305.416 224.483 322.016 211.283C338.616 198.083 360.516 190.083 370.016 185.983C379.416 181.783 410.116 176.483 410.116 176.483Z" fill="#FDF1DC"/>
<path d="M143.217 142.083C136.017 142.883 128.917 149.683 123.217 161.383C117.517 173.083 101.317 210.483 91.8168 239.183C82.4168 267.983 73.7168 307.983 69.5168 321.283C65.4168 334.483 35.9168 472.783 31.0168 515.183C26.1168 557.483 16.6168 632.683 15.5168 667.783C14.3168 702.983 13.2168 755.483 13.2168 755.483C13.2168 755.483 82.4168 769.483 135.717 767.983C189.017 766.483 246.017 752.883 246.017 752.883C246.017 752.883 249.117 587.683 246.417 532.183C243.817 476.583 237.317 403.683 234.317 380.983C231.317 358.283 233.617 330.283 233.617 330.283C233.617 330.283 221.817 306.483 221.517 281.583C221.117 256.583 218.117 201.483 213.917 180.983C209.717 160.583 205.417 150.183 197.817 146.683C190.317 143.083 192.417 146.483 192.417 146.483C192.417 146.483 202.817 166.083 203.517 191.583C204.317 217.083 205.017 232.783 205.017 232.783C205.017 232.783 183.117 235.683 161.017 232.783C138.917 229.983 112.217 226.983 112.217 226.983C112.217 226.983 121.917 195.983 126.217 183.483C130.617 170.983 143.217 142.083 143.217 142.083Z" fill="#242A34"/>
<path d="M152.816 80.8833C151.016 97.9833 147.316 116.683 145.516 124.683C143.716 132.783 137.416 148.183 137.416 148.183C137.416 148.183 146.516 173.383 172.716 171.083C198.916 168.783 198.416 153.983 198.416 153.983C198.416 153.983 198.416 134.583 199.716 128.483C200.916 122.483 202.916 109.383 202.916 109.383C202.916 109.383 167.416 81.5832 160.416 80.0832C153.316 78.5832 152.816 80.8833 152.816 80.8833Z" fill="#FFA35F"/>
<path d="M148.017 82.6909C147.781 96.3929 149.905 109.289 158.4 121.782C166.541 133.368 180.464 138.507 186.954 139.212C191.673 139.816 196.601 139.313 198.725 139.212C198.961 134.678 199.41 130.918 200 128.5C201.416 122.455 203 109.087 203 109.087L148.017 82.6909Z" fill="#8A4122"/>
<path d="M202.9 115.8C203.066 115.579 203.021 115.266 202.8 115.1C202.579 114.934 202.266 114.979 202.1 115.2L202.9 115.8ZM148.501 86.4644C147.991 93.5991 151.038 110.587 167.213 121.91L167.786 121.09C151.961 110.013 149.008 93.4009 149.498 86.5356L148.501 86.4644ZM167.213 121.91C175.35 127.605 183.017 127.789 189.285 125.674C195.525 123.568 200.353 119.196 202.9 115.8L202.1 115.2C199.647 118.471 194.975 122.699 188.965 124.726C182.983 126.745 175.65 126.595 167.786 121.09L167.213 121.91Z" fill="#8A4122"/>
<path d="M151.415 48.8833C146.315 66.9833 148.715 90.0832 151.315 99.2832C154.015 108.383 164.415 119.983 169.015 122.283C175.415 125.583 184.615 126.283 190.215 124.983C195.715 123.683 208.415 111.183 213.115 95.0832C217.715 78.9832 220.615 61.4832 221.315 52.7832C222.015 44.0832 221.315 37.4832 221.315 37.4832C221.315 37.4832 201.515 18.8833 180.015 21.8833C158.615 24.8833 151.415 48.8833 151.415 48.8833Z" fill="#FFA35F"/>
<path d="M191.604 84.9314C191.194 87.1022 189.102 88.53 186.931 88.1205C184.761 87.7109 183.333 85.619 183.742 83.4482C184.152 81.2774 188.098 70.0229 190.269 70.4325C192.439 70.8421 192.013 82.7606 191.604 84.9314Z" fill="#8A4122"/>
<path d="M174.415 92.2832C175.215 89.1832 181.115 92.4832 187.415 93.3832C193.615 94.2832 197.915 93.2832 199.415 95.8832C200.915 98.3832 194.015 104.283 185.215 102.383C176.415 100.483 173.615 95.3832 174.415 92.2832Z" fill="white"/>
<path d="M170.715 67.2833C170.515 68.6833 169.815 69.6833 168.615 69.4833C167.215 69.2833 167.215 68.1833 167.415 66.7833C167.615 65.3833 168.115 64.2833 169.415 64.4833C170.615 64.6833 170.915 65.8833 170.715 67.2833Z" fill="#181F29"/>
<path d="M208.415 71.4832C208.215 72.8832 207.515 73.8832 206.315 73.7832C204.915 73.5832 204.915 72.3832 205.115 70.9832C205.315 69.5832 205.815 68.5832 207.115 68.7832C208.315 68.8832 208.615 70.0832 208.415 71.4832Z" fill="#181F29"/>
<path d="M148.616 72.0832L153.616 73.6832C153.616 73.6832 155.016 62.1832 156.616 57.2832C158.216 52.4832 165.316 46.1832 167.916 40.2832C170.616 34.2832 174.116 28.3833 174.116 28.3833C174.116 28.3833 180.516 27.5832 185.816 32.6832C188.116 34.7832 197.616 40.2832 205.816 41.4832C214.016 42.6832 222.916 42.6832 227.316 41.6832C231.616 40.6832 232.716 37.5832 231.716 36.1832C231.716 36.1832 242.516 31.6832 242.116 25.9832C241.616 20.2832 237.016 20.7833 237.016 20.7833C237.016 20.7833 245.116 14.9833 246.516 9.28325C248.016 3.68325 244.816 2.28325 240.416 2.78325C236.016 3.28325 227.916 10.7833 221.316 10.3833C214.716 9.88326 209.016 6.28325 203.516 3.08325C198.016 -0.216746 186.516 0.383247 182.016 1.98325C177.616 3.48325 173.316 8.08325 172.916 13.2833C172.916 13.2833 165.816 11.7833 158.716 17.8833C151.716 23.8833 148.716 30.6833 147.016 39.5833C145.316 48.4833 146.116 58.7832 146.116 58.7832L148.616 72.0832Z" fill="#3C241D"/>
<path fill-rule="evenodd" clip-rule="evenodd" d="M174.415 78.3833C169.815 78.3833 164.515 76.9833 162.215 74.3833C158.915 70.5833 160.515 62.0833 160.715 61.0833L160.915 60.3833L161.615 60.1832C161.815 60.1832 167.715 58.9833 174.315 59.9833C180.815 61.0833 185.515 63.6833 185.715 63.7833L186.415 64.1832L186.215 64.9833C186.015 65.9833 184.115 75.2833 180.015 77.3833C178.615 78.0833 176.615 78.3833 174.415 78.3833ZM162.815 62.2833C162.415 65.0833 162.015 70.5833 164.015 72.8833C166.515 75.8833 175.615 76.9833 179.015 75.2833C181.215 74.2833 183.015 68.9833 183.815 65.3833C182.315 64.5833 178.615 62.9833 173.915 62.2833C169.115 61.4833 164.515 62.0833 162.815 62.2833Z" fill="#181F29"/>
<path fill-rule="evenodd" clip-rule="evenodd" d="M208.915 82.2833C204.415 82.2833 199.316 80.7832 197.016 78.6832C193.716 75.5832 194.515 66.0832 194.615 65.0832L194.715 64.1832L195.516 64.0832C195.716 63.9832 200.916 62.8832 207.516 63.6832C214.116 64.5832 219.315 67.3832 219.615 67.5832L220.215 67.8833L220.115 68.6832C220.115 69.5832 219.115 78.2833 214.915 80.9833C213.415 81.8833 211.315 82.2833 208.915 82.2833ZM196.816 66.0832C196.516 69.7832 196.815 75.3833 198.615 76.9833C201.315 79.5833 210.315 81.1833 213.715 78.9833C216.215 77.3833 217.416 71.9832 217.816 69.1832C216.216 68.4832 212.015 66.5833 207.215 65.9833C202.515 65.3833 198.516 65.8832 196.816 66.0832Z" fill="#181F29"/>
<path d="M195.315 66.1832C193.515 65.3832 188.115 65.3832 185.315 65.8832L184.915 63.5832C187.515 63.1832 193.715 62.8832 196.215 64.0832L195.315 66.1832Z" fill="#181F29"/>
<path d="M161.115 62.1832C157.115 58.8832 151.816 55.4833 150.116 55.7833C148.016 56.1833 147.716 57.7833 147.716 57.9833L145.516 57.7833C145.516 56.5833 146.616 54.0833 149.716 53.4833C153.216 52.8833 161.015 59.1833 162.615 60.4833L161.115 62.1832Z" fill="#181F29"/>
<path d="M152.515 57.4832C152.515 57.4832 145.715 51.2832 138.215 57.0832C130.715 62.7832 131.515 76.6832 136.515 82.5832C141.815 88.9832 150.515 85.6832 150.515 85.6832C150.515 85.6832 150.115 78.0832 150.715 70.2832C151.415 62.3832 152.515 57.4832 152.515 57.4832Z" fill="#FFA35F"/>
<path style="mix-blend-mode:multiply" opacity="0.6" d="M110.217 568.883C113.917 530.683 101.917 304.183 92.8168 236.183C92.4834 237.183 92.1501 238.183 91.8168 239.183C82.4168 267.983 73.7168 307.983 69.5168 321.283C65.4168 334.483 35.9168 472.783 31.0168 515.183C26.1168 557.483 16.6168 632.683 15.5168 667.783C14.3168 702.983 13.2168 755.483 13.2168 755.483C13.2168 755.483 64.4168 765.883 112.717 767.783C111.117 725.283 106.917 603.683 110.217 568.883Z" fill="url(#paint0_linear_504_2074)"/>
<path d="M67.8171 325.383C83.7171 330.683 134.217 340.483 144.017 341.683C153.817 342.783 156.517 347.683 156.517 347.683C156.517 347.683 164.417 342.383 170.417 342.383C176.517 342.383 200.717 342.383 210.917 341.283C221.117 340.183 232.817 340.183 232.817 340.183V349.183C232.817 349.183 220.317 351.883 207.917 352.583C195.417 353.383 174.617 354.083 166.717 354.083C158.717 354.083 154.217 352.983 154.217 352.983C154.217 352.983 144.417 355.283 125.817 351.483C107.317 347.683 64.6172 336.783 64.6172 336.783L67.8171 325.383Z" fill="#181F29"/>
<path d="M145.916 333.183L154.616 330.083C154.616 330.083 157.816 336.583 157.816 339.983C157.816 343.383 156.516 347.683 156.516 347.683L156.116 351.283C156.116 351.283 161.416 359.083 162.716 362.783C164.016 366.583 165.516 373.583 165.516 373.583L156.316 374.883C156.316 374.883 155.316 364.883 154.616 361.683C153.816 358.483 151.416 351.083 151.416 351.083C151.416 351.083 151.216 345.283 149.716 341.283C148.116 337.283 145.916 333.183 145.916 333.183Z" fill="#181F29"/>
<path d="M450.516 246.783C447.516 218.783 434.616 191.983 428.216 182.883C424.816 178.083 420.316 175.983 414.716 175.083C417.616 180.483 424.716 193.783 428.516 203.083C433.216 214.883 435.316 235.283 435.316 235.283C435.316 235.283 412.816 239.383 393.416 241.083C374.016 242.883 348.616 243.683 348.616 243.683C348.616 243.683 353.116 224.283 355.416 217.983C357.516 212.183 363.716 194.283 368.016 184.883C367.416 185.283 364.116 185.583 363.616 185.983C353.716 191.983 340.116 226.783 333.716 263.383C327.316 300.083 333.316 346.183 333.316 346.183C333.316 346.183 363.916 347.283 389.616 346.583C415.316 345.783 453.916 338.983 453.916 338.983C453.916 338.983 453.516 274.783 450.516 246.783Z" fill="#262C36"/>
<path d="M428.416 114.083C428.416 114.083 427.116 139.683 415.916 150.983C404.816 162.283 380.816 174.783 372.116 174.383C363.416 174.083 346.616 166.483 339.816 149.683C333.016 132.883 334.816 118.683 336.216 108.083C337.516 97.4832 367.716 88.9832 391.516 89.5832C415.316 90.0832 428.416 114.083 428.416 114.083Z" fill="#422914"/>
<path d="M403.116 239.983C406.416 234.683 410.016 227.783 412.716 220.183C419.816 200.283 419.816 184.383 419.816 184.383C419.816 184.383 416.516 173.083 415.916 161.183C415.316 149.283 415.716 129.283 415.716 129.283L366.016 149.883C367.916 160.383 367.716 185.083 364.816 192.583C364.816 192.583 366.116 197.883 368.516 203.483C370.216 207.583 379.716 228.183 388.416 241.683C393.316 241.283 398.216 240.283 403.116 239.983Z" fill="#FFA35F"/>
<path d="M384.6 153.5L416.5 133C415.4 139 416.1 155.6 416.5 165C412.3 164.5 402 181.8 390.5 178C379.2 174.3 369 162 365 150L384.6 153.5Z" fill="#8A4122"/>
<path d="M358.317 104.183C358.317 104.183 349.317 100.883 343.717 109.083C338.117 117.383 343.817 130.283 350.917 133.983C358.617 138.083 366.217 131.683 366.217 131.683C366.217 131.683 363.117 124.683 361.017 116.983C358.917 109.283 358.317 104.183 358.317 104.183Z" fill="#FFA35F"/>
<path d="M360.896 104.392C360.896 104.392 355.081 100.867 351.463 109.627C347.844 118.493 351.527 132.274 356.115 136.226C361.09 140.606 366 133.769 366 133.769C366 133.769 363.997 126.291 362.64 118.066C361.283 109.84 360.896 104.392 360.896 104.392Z" fill="#8A4122"/>
<path d="M350.316 106.783C350.316 106.783 353.616 128.083 356.016 137.583C358.516 146.983 368.916 153.583 373.216 156.983C377.616 160.383 384.016 163.983 390.816 162.883C397.616 161.783 407.216 151.383 412.316 140.983C417.416 130.583 420.116 123.583 419.916 112.283C419.716 100.883 418.916 91.7832 416.916 82.3832C414.816 72.9832 407.416 63.6832 393.116 62.6832C378.716 61.7832 362.916 65.8832 356.416 84.0832C351.316 98.4832 350.316 106.783 350.316 106.783Z" fill="#FFA35F"/>
<path d="M417.416 93.6832C417.416 93.6832 424.116 87.5832 431.116 93.6832C438.016 99.7832 436.816 113.783 431.816 119.583C426.416 125.883 418.316 122.183 418.316 122.183C418.316 122.183 419.016 114.583 418.616 106.583C418.316 98.5832 417.416 93.6832 417.416 93.6832Z" fill="#FFA35F"/>
<path d="M397.416 67.4833C397.416 67.4833 385.516 79.8832 375.316 89.1832C365.116 98.4832 354.116 105.483 350.016 113.783C346.616 120.383 342.216 134.183 342.216 134.183C342.216 134.183 327.116 120.183 330.916 94.6832C334.716 69.1832 351.316 54.3832 364.316 49.4832C377.416 44.5832 397.616 47.3832 404.216 58.1832C404.216 58.1832 418.216 56.6833 425.616 66.4833C432.916 76.3833 432.916 83.4832 432.516 92.7832C432.216 102.083 431.016 112.783 431.016 112.783C431.016 112.783 419.916 109.383 415.916 97.0832C411.916 84.8832 413.516 82.3832 408.416 76.8832C403.316 71.3832 397.416 67.4833 397.416 67.4833Z" fill="#422914"/>
<path d="M384.903 123.55C385.216 125.737 383.698 127.763 381.511 128.076C379.324 128.389 377.297 126.87 376.984 124.684C376.671 122.497 376.773 110.571 378.96 110.258C381.146 109.945 384.59 121.363 384.903 123.55Z" fill="#8A4122"/>
<path d="M399.816 107.283C400.216 108.783 400.016 110.083 398.716 110.483C397.216 110.883 396.716 109.783 396.316 108.283C395.916 106.783 395.916 105.483 397.316 105.083C398.716 104.683 399.416 105.783 399.816 107.283Z" fill="#181F29"/>
<path d="M365.216 115.083C365.516 116.583 365.316 117.883 364.016 118.183C362.516 118.583 362.016 117.483 361.616 115.983C361.216 114.483 361.316 113.183 362.716 112.783C364.116 112.483 364.816 113.583 365.216 115.083Z" fill="#181F29"/>
<path d="M372.916 137.383C371.916 133.883 378.116 135.583 383.316 134.283C388.616 132.983 392.016 130.583 393.816 132.283C395.616 134.083 392.516 143.183 384.816 144.283C377.116 145.483 373.816 140.883 372.916 137.383Z" fill="white"/>
<path d="M333.317 346.183C321.917 371.383 296.317 427.383 284.417 487.583C272.517 547.783 267.217 630.383 266.417 657.583C265.717 684.783 268.117 752.583 268.117 752.583C268.117 752.583 307.817 759.883 376.317 757.183C444.817 754.383 500.817 734.683 500.817 734.683C500.817 734.683 506.817 578.283 499.317 512.483C491.717 446.683 481.117 410.483 472.017 384.783C463.017 359.083 453.917 338.983 453.917 338.983C453.917 338.983 418.417 334.883 381.317 337.883C344.317 340.883 333.317 346.183 333.317 346.183Z" fill="#262C36"/>
<path style="mix-blend-mode:multiply" opacity="0.6" d="M333.317 346.183C321.917 371.383 296.317 427.383 284.417 487.583C272.517 547.783 267.217 630.383 266.417 657.583C265.717 684.783 268.117 752.583 268.117 752.583C268.117 752.583 307.817 759.883 376.317 757.183C444.817 754.383 500.817 734.683 500.817 734.683C500.817 734.683 506.817 578.283 499.317 512.483C491.717 446.683 481.117 410.483 472.017 384.783C463.017 359.083 453.917 338.983 453.917 338.983C453.917 338.983 418.417 334.883 381.317 337.883C344.317 340.883 333.317 346.183 333.317 346.183Z" fill="url(#paint1_linear_504_2074)"/>
<path d="M332.217 339.883L332.517 348.983C332.517 348.983 366.017 352.783 389.617 351.983C413.317 351.183 447.917 345.483 455.217 342.683L453.617 335.083C453.617 335.083 420.417 342.383 394.217 343.683C368.017 344.883 332.217 339.883 332.217 339.883Z" fill="#181F29"/>
<path d="M404.417 329.383L395.717 326.383C395.717 326.383 392.517 332.783 392.517 336.183C392.517 339.583 393.817 343.883 393.817 343.883L394.217 347.483C394.217 347.483 388.917 355.283 387.617 359.083C386.217 362.783 384.717 369.783 384.717 369.783L394.017 371.183C394.017 371.183 394.917 361.083 395.717 357.883C396.517 354.683 398.917 347.283 398.917 347.283C398.917 347.283 399.117 341.483 400.617 337.483C402.117 333.483 404.417 329.383 404.417 329.383Z" fill="#181F29"/>
<g style="mix-blend-mode:multiply" opacity="0.4">
<path d="M471.316 241.883C473.016 235.783 483.316 221.683 488.116 215.283C489.404 216.834 490.701 218.455 492 220.136C487.333 222.988 477.9 232.091 477.5 245.691C477 262.691 481.5 282.691 479.5 290.191C477.9 296.191 473.378 309.254 471.316 315.036C469.39 310.127 468.316 307.283 468.316 307.283C475.816 294.083 474.316 278.883 473.216 271.783C472.016 264.583 469.016 249.783 471.316 241.883Z" fill="#D9D9D9"/>
</g>
<g style="mix-blend-mode:multiply" opacity="0.4">
<path d="M299.116 233.883C303.716 243.383 311.116 259.583 310.316 265.283C309.116 273.583 306.516 305.783 312.916 318.183C312.916 318.183 309.724 324.008 305.5 331.57C306.591 329.611 308.118 321.891 305.5 306.691C302.227 287.691 308.997 280.691 305.5 265.283C302.702 252.957 297.515 242.419 295.271 238.691C296.548 237.036 297.83 235.434 299.116 233.883Z" fill="#D9D9D9"/>
</g>
<path fill-rule="evenodd" clip-rule="evenodd" d="M187.953 272.766L171.925 256.74C171.249 256.063 170.35 255.691 169.393 255.691C168.436 255.691 167.537 256.063 166.86 256.74L131.047 292.549C129.651 293.946 129.651 296.218 131.047 297.613L147.075 313.642C147.752 314.317 148.651 314.691 149.607 314.691C150.564 314.691 151.463 314.317 152.14 313.642L187.953 277.83C189.349 276.435 189.349 274.163 187.953 272.766Z" fill="#FFFFFE"/>
<path fill-rule="evenodd" clip-rule="evenodd" d="M172.617 278.613C171.714 279.515 170.527 279.966 169.348 279.966C168.167 279.965 166.983 279.515 166.078 278.613C165.177 277.711 164.723 276.525 164.723 275.344C164.723 274.161 165.177 272.975 166.078 272.075C166.983 271.174 168.165 270.718 169.348 270.719C170.527 270.719 171.714 271.17 172.617 272.075C173.517 272.975 173.973 274.161 173.972 275.344C173.973 276.523 173.517 277.711 172.617 278.613ZM186.653 273.998L170.693 258.038C169.924 257.269 168.676 257.269 167.907 258.038L150.65 275.295L169.397 294.041L186.653 276.785C187.423 276.015 187.423 274.768 186.653 273.998Z" fill="#D02139"/>
<path fill-rule="evenodd" clip-rule="evenodd" d="M153.202 291.837C154.104 290.932 155.289 290.481 156.471 290.481C157.654 290.481 158.839 290.932 159.74 291.837C160.646 292.74 161.098 293.921 161.098 295.107C161.098 296.288 160.646 297.474 159.74 298.374C158.839 299.273 157.654 299.726 156.471 299.728C155.288 299.728 154.104 299.273 153.202 298.374C152.299 297.47 151.847 296.286 151.847 295.107C151.847 293.924 152.299 292.74 153.202 291.837ZM146.171 298.19C145.267 299.088 144.082 299.539 142.9 299.539C141.716 299.538 140.532 299.089 139.629 298.19C138.725 297.289 138.277 296.103 138.277 294.922C138.277 293.739 138.728 292.554 139.629 291.648C140.532 290.747 141.716 290.297 142.9 290.297C144.082 290.297 145.268 290.747 146.171 291.649C147.073 292.554 147.523 293.739 147.522 294.92C147.522 296.102 147.073 297.29 146.171 298.19ZM132.347 293.592C131.577 294.362 131.577 295.61 132.347 296.38L148.31 312.344C148.695 312.728 149.2 312.921 149.704 312.921C150.208 312.921 150.713 312.728 151.098 312.344L168.35 295.091L149.598 276.341L132.347 293.592Z" fill="#006E9A"/>
<path fill-rule="evenodd" clip-rule="evenodd" d="M160.475 311.23H160.781C160.985 311.23 161.129 311.197 161.213 311.131C161.296 311.064 161.338 310.98 161.338 310.875C161.338 310.771 161.298 310.685 161.218 310.619C161.138 310.553 161.001 310.52 160.809 310.52H160.475V311.23ZM159.769 310.026H161.038C161.398 310.026 161.658 310.098 161.819 310.243C161.98 310.388 162.061 310.583 162.061 310.826C162.061 311.017 162 311.181 161.877 311.32C161.754 311.46 161.56 311.56 161.296 311.623C161.405 311.665 161.485 311.709 161.536 311.755C161.608 311.82 161.683 311.917 161.762 312.044C161.767 312.053 161.919 312.327 162.221 312.866H161.386C161.115 312.325 160.933 312.002 160.84 311.896C160.748 311.791 160.655 311.738 160.562 311.738C160.541 311.738 160.513 311.741 160.475 311.749V312.866H159.769V310.026ZM163.115 311.446C163.115 310.854 162.906 310.349 162.487 309.93C162.068 309.512 161.564 309.302 160.972 309.302C160.382 309.302 159.876 309.512 159.458 309.93C159.04 310.349 158.831 310.854 158.831 311.446C158.831 312.037 159.04 312.542 159.458 312.961C159.876 313.38 160.382 313.589 160.972 313.589C161.564 313.589 162.068 313.38 162.487 312.961C162.906 312.542 163.115 312.037 163.115 311.446ZM163.629 311.446C163.629 311.921 163.511 312.364 163.273 312.775C163.035 313.185 162.711 313.509 162.301 313.746C161.891 313.983 161.448 314.101 160.972 314.101C160.5 314.101 160.058 313.983 159.648 313.746C159.237 313.509 158.913 313.185 158.676 312.775C158.438 312.364 158.319 311.921 158.319 311.446C158.319 310.972 158.438 310.53 158.676 310.118C158.913 309.706 159.237 309.382 159.648 309.146C160.058 308.909 160.5 308.791 160.972 308.791C161.448 308.791 161.891 308.909 162.301 309.146C162.711 309.382 163.035 309.706 163.273 310.118C163.511 310.53 163.629 310.972 163.629 311.446Z" fill="white"/>
<path fill-rule="evenodd" clip-rule="evenodd" d="M416.953 275.766L400.925 259.74C400.249 259.063 399.35 258.691 398.393 258.691C397.436 258.691 396.537 259.063 395.86 259.74L360.047 295.549C358.651 296.946 358.651 299.218 360.047 300.613L376.075 316.642C376.752 317.317 377.651 317.691 378.607 317.691C379.564 317.691 380.463 317.317 381.14 316.642L416.953 280.83C418.349 279.435 418.349 277.163 416.953 275.766Z" fill="#FFFFFE"/>
<path fill-rule="evenodd" clip-rule="evenodd" d="M401.617 281.613C400.714 282.515 399.527 282.966 398.348 282.966C397.167 282.965 395.983 282.515 395.078 281.613C394.177 280.711 393.723 279.525 393.723 278.344C393.723 277.161 394.177 275.975 395.078 275.075C395.983 274.174 397.165 273.718 398.348 273.719C399.527 273.719 400.714 274.17 401.617 275.075C402.517 275.975 402.973 277.161 402.972 278.344C402.973 279.523 402.517 280.711 401.617 281.613ZM415.653 276.998L399.693 261.038C398.924 260.269 397.676 260.269 396.907 261.038L379.65 278.295L398.397 297.041L415.653 279.785C416.423 279.015 416.423 277.768 415.653 276.998Z" fill="#D02139"/>
<path fill-rule="evenodd" clip-rule="evenodd" d="M382.202 294.837C383.104 293.932 384.289 293.481 385.471 293.481C386.654 293.481 387.839 293.932 388.74 294.837C389.646 295.74 390.098 296.921 390.098 298.107C390.098 299.288 389.646 300.474 388.74 301.374C387.839 302.273 386.654 302.726 385.471 302.728C384.288 302.728 383.104 302.273 382.202 301.374C381.299 300.47 380.847 299.286 380.847 298.107C380.847 296.924 381.299 295.74 382.202 294.837ZM375.171 301.19C374.267 302.088 373.082 302.539 371.9 302.539C370.716 302.538 369.532 302.089 368.629 301.19C367.725 300.289 367.277 299.103 367.277 297.922C367.277 296.739 367.728 295.554 368.629 294.648C369.532 293.747 370.716 293.297 371.9 293.297C373.082 293.297 374.268 293.747 375.171 294.649C376.073 295.554 376.523 296.739 376.522 297.92C376.522 299.102 376.073 300.29 375.171 301.19ZM361.347 296.592C360.577 297.362 360.577 298.61 361.347 299.38L377.31 315.344C377.695 315.728 378.2 315.921 378.704 315.921C379.208 315.921 379.713 315.728 380.098 315.344L397.35 298.091L378.598 279.341L361.347 296.592Z" fill="#006E9A"/>
<path fill-rule="evenodd" clip-rule="evenodd" d="M389.475 314.23H389.781C389.985 314.23 390.129 314.197 390.213 314.131C390.296 314.064 390.338 313.98 390.338 313.875C390.338 313.771 390.298 313.685 390.218 313.619C390.138 313.553 390.001 313.52 389.809 313.52H389.475V314.23ZM388.769 313.026H390.038C390.398 313.026 390.658 313.098 390.819 313.243C390.98 313.388 391.061 313.583 391.061 313.826C391.061 314.017 391 314.181 390.877 314.32C390.754 314.46 390.56 314.56 390.296 314.623C390.405 314.665 390.485 314.709 390.536 314.755C390.608 314.82 390.683 314.917 390.762 315.044C390.767 315.053 390.919 315.327 391.221 315.866H390.386C390.115 315.325 389.933 315.002 389.84 314.896C389.748 314.791 389.655 314.738 389.562 314.738C389.541 314.738 389.513 314.741 389.475 314.749V315.866H388.769V313.026ZM392.115 314.446C392.115 313.854 391.906 313.349 391.487 312.93C391.068 312.512 390.564 312.302 389.972 312.302C389.382 312.302 388.876 312.512 388.458 312.93C388.04 313.349 387.831 313.854 387.831 314.446C387.831 315.037 388.04 315.542 388.458 315.961C388.876 316.38 389.382 316.589 389.972 316.589C390.564 316.589 391.068 316.38 391.487 315.961C391.906 315.542 392.115 315.037 392.115 314.446ZM392.629 314.446C392.629 314.921 392.511 315.364 392.273 315.775C392.035 316.185 391.711 316.509 391.301 316.746C390.891 316.983 390.448 317.101 389.972 317.101C389.5 317.101 389.058 316.983 388.648 316.746C388.237 316.509 387.913 316.185 387.676 315.775C387.438 315.364 387.319 314.921 387.319 314.446C387.319 313.972 387.438 313.53 387.676 313.118C387.913 312.706 388.237 312.382 388.648 312.146C389.058 311.909 389.5 311.791 389.972 311.791C390.448 311.791 390.891 311.909 391.301 312.146C391.711 312.382 392.035 312.706 392.273 313.118C392.511 313.53 392.629 313.972 392.629 314.446Z" fill="white"/>
</g>
<defs>
<linearGradient id="paint0_linear_504_2074" x1="15.5168" y1="236.183" x2="100.117" y2="236.183" gradientUnits="userSpaceOnUse">
<stop stop-color="#485F96"/>
<stop offset="0.882" stop-color="white"/>
</linearGradient>
<linearGradient id="paint1_linear_504_2074" x1="269.917" y1="299.583" x2="403.017" y2="309.783" gradientUnits="userSpaceOnUse">
<stop stop-color="#485F96"/>
<stop offset="0.882" stop-color="white"/>
</linearGradient>
</defs>
</svg>
