<svg width="256" height="165" viewBox="0 0 256 165" fill="none" xmlns="http://www.w3.org/2000/svg">
<path fill-rule="evenodd" clip-rule="evenodd" d="M39.3749 145.851C4.86627 130.275 -11.4551 54.1697 26.5935 32.7773C41.1908 24.5699 54.9263 27.2161 68.8656 29.8623C83.9138 32.7184 99.1995 35.5745 116.064 24.7761C157.976 -2.05924 189.749 15.9058 212.457 49.3119C229.5 74.3798 238.526 90.5958 247.075 110.115C260.389 140.516 232.163 147.451 232.163 147.451C232.163 147.451 73.8835 161.427 39.3749 145.851Z" fill="#E6F6FC"/>
<path fill-rule="evenodd" clip-rule="evenodd" d="M84.0599 160.588C86.4657 159.484 102.505 151.365 111.442 148.036C120.384 144.709 131.509 139.479 131.509 139.479C131.509 139.479 155.372 153.742 158.988 153.457C162.599 153.172 203.679 123.505 207.387 123.409C211.095 123.314 234.486 136.246 236.294 136.246C238.102 136.246 237.337 133.869 236.294 132.253C235.246 130.636 213.376 100.208 205.533 90.3669C197.69 80.5253 179.574 55.9925 178.29 54.1383C177.006 52.2841 162.316 46.8643 145.341 34.7411C143.413 33.3611 101.587 62.6435 93.317 66.0663C92.0654 66.5841 69.1754 52.2841 67.3212 51.4288C65.467 50.5727 37.3713 62.554 31.5213 65.6917C25.676 68.83 17.4017 73.2508 18.1155 74.2498C18.8294 75.2478 31.9524 96.2145 41.9373 107.625C51.9175 119.035 62.1897 134.725 66.3246 141.001C70.4594 147.276 81.2972 161.854 84.0599 160.588Z" fill="#FEFEFE"/>
<path fill-rule="evenodd" clip-rule="evenodd" d="M236.294 132.254C235.334 130.771 218.744 107.204 200.16 83.4549C193.402 89.2488 188.729 94.8837 184.474 101.82C180.714 107.948 176.273 119.654 169.121 121.129C162.719 122.446 156.267 122.58 150.101 124.976C142.198 128.05 135.203 133.38 130.095 140.139C130.994 139.722 131.509 139.481 131.509 139.481C131.509 139.481 155.372 153.744 158.988 153.456C162.599 153.169 203.678 123.502 207.387 123.409C211.095 123.312 234.486 136.245 236.294 136.245C238.097 136.245 237.337 133.867 236.294 132.254Z" fill="#A6E2F5"/>
<path fill-rule="evenodd" clip-rule="evenodd" d="M178.29 54.1373C177.006 52.2831 162.316 46.8638 145.341 34.742C143.413 33.3611 101.587 62.6434 93.317 66.0686C92.0654 66.5831 69.1754 52.2831 67.3212 51.4297C65.467 50.5722 37.3713 62.5554 31.5213 65.6931C25.676 68.8313 17.4017 73.249 18.1155 74.2502C18.8201 75.233 31.6372 95.7079 41.5711 107.204C53.8366 98.6278 58.8614 94.4243 71.7434 86.8013C77.0325 83.6718 84.4215 79.3891 89.59 79.4726C94.258 79.5467 104.586 83.1647 108.892 84.8748C113.027 86.5157 117.023 88.5368 121.218 90.0201C125.204 91.4242 128.598 90.9102 132.32 89.0328C149.105 80.5494 165.631 70.4394 184.77 68.5347C186.096 68.4002 187.413 68.3214 188.729 68.2844C183.375 61.104 178.907 55.0227 178.29 54.1373Z" fill="#A6E2F5"/>
<path fill-rule="evenodd" clip-rule="evenodd" d="M88.7047 63.9641C86.1876 66.1479 83.2812 68.7201 79.7814 71.4917C70.2833 79.0155 59.4316 84.4251 44.0279 81.19C37.0793 79.734 29.8479 80.777 23.5808 82.6131C20.5074 77.9869 18.389 74.635 18.1155 74.2502C17.4017 73.249 25.676 68.8314 31.5213 65.6931C37.3713 62.5554 65.467 50.5722 67.3212 51.4298C68.6933 52.0602 81.5892 60.061 88.7047 63.9641Z" fill="#C7AF34"/>
<path fill-rule="evenodd" clip-rule="evenodd" d="M236.293 136.245C234.485 136.245 211.094 123.312 207.386 123.409C203.678 123.502 162.598 153.169 158.987 153.456C155.371 153.744 131.508 139.481 131.508 139.481C131.508 139.481 144.056 141.664 149.192 140.334C149.192 140.334 155.807 127.712 187.987 124.36C197.114 123.409 203.817 108.595 210.807 107.626C212.48 107.394 215.22 107.329 218.474 107.571C226.874 119.015 235.639 131.243 236.293 132.254C237.336 133.867 238.096 136.245 236.293 136.245Z" fill="#C7AF34"/>
<path fill-rule="evenodd" clip-rule="evenodd" d="M59.4045 114.394C57.7079 117.541 56.1968 120.807 54.7783 124.068C55.2001 124.656 55.6173 125.241 56.0253 125.815C57.453 122.483 58.9642 119.132 60.67 115.899C60.2482 115.398 59.8264 114.893 59.4045 114.394Z" fill="#643F46"/>
<path fill-rule="evenodd" clip-rule="evenodd" d="M68.2478 101.82C65.0679 105.147 62.4303 108.985 60.1357 113.061C60.5576 113.555 60.9748 114.056 61.3966 114.553C63.6958 110.382 66.3566 106.453 69.6199 103.071C69.1564 102.659 68.7021 102.242 68.2478 101.82Z" fill="#643F46"/>
<path fill-rule="evenodd" clip-rule="evenodd" d="M81.538 92.9525C80.101 93.4536 78.6686 94.0762 77.2594 94.8457C74.2742 96.4737 71.6505 98.4785 69.3096 100.753C69.7638 101.176 70.2181 101.594 70.6817 102.008C72.5683 100.193 74.645 98.5536 76.9628 97.1542C78.6964 96.1047 80.4625 95.2972 82.2426 94.6876C81.9922 94.1151 81.7558 93.5371 81.538 92.9525Z" fill="#643F46"/>
<path fill-rule="evenodd" clip-rule="evenodd" d="M98.1983 91.9165C93.1039 91.0543 87.9678 91.0474 82.9707 92.4937C83.1839 93.0828 83.4203 93.665 83.6753 94.2431C88.6723 92.8385 93.8038 92.9669 98.8936 93.9497C98.6386 93.2784 98.4022 92.6026 98.1983 91.9165Z" fill="#643F46"/>
<path fill-rule="evenodd" clip-rule="evenodd" d="M113.384 96.5645C109.004 94.7609 104.442 93.1658 99.8301 92.2234C100.066 92.9257 100.335 93.6187 100.613 94.3098C105.003 95.3176 109.351 96.9099 113.551 98.6486C113.491 97.9538 113.431 97.2594 113.384 96.5645Z" fill="#643F46"/>
<path fill-rule="evenodd" clip-rule="evenodd" d="M132.264 104.09C126.307 102.3 120.657 99.6569 114.937 97.2144C114.988 97.9097 115.052 98.6051 115.108 99.3009C115.789 99.591 116.471 99.8831 117.143 100.176C122.033 102.307 126.933 104.448 132.046 105.961C132.111 105.337 132.181 104.713 132.264 104.09Z" fill="#643F46"/>
<path fill-rule="evenodd" clip-rule="evenodd" d="M148.831 106.655C144.339 106.55 139.862 106.013 135.486 104.965C134.897 104.824 134.308 104.67 133.724 104.51C133.645 105.13 133.576 105.753 133.516 106.376C134.128 106.541 134.744 106.698 135.361 106.842C139.848 107.887 144.451 108.436 149.063 108.526C148.98 107.902 148.905 107.279 148.831 106.655Z" fill="#643F46"/>
<path fill-rule="evenodd" clip-rule="evenodd" d="M165.162 105.178C161.839 105.848 158.473 106.309 155.085 106.532C153.504 106.636 151.923 106.684 150.338 106.682C150.412 107.299 150.486 107.915 150.565 108.532C151.571 108.53 152.577 108.514 153.578 108.469C157.745 108.283 161.88 107.736 165.955 106.89C165.691 106.319 165.426 105.747 165.162 105.178Z" fill="#643F46"/>
<path fill-rule="evenodd" clip-rule="evenodd" d="M179.912 100.766C175.606 102.47 171.174 103.855 166.664 104.854C166.928 105.425 167.188 105.996 167.452 106.568C171.953 105.545 176.38 104.15 180.677 102.447C180.418 101.889 180.163 101.328 179.912 100.766Z" fill="#643F46"/>
<path fill-rule="evenodd" clip-rule="evenodd" d="M198.019 93.4583C200.207 92.0417 202.349 90.5569 204.462 89.0142C204.087 88.5414 203.697 88.0408 203.299 87.5216C201.19 89.0532 199.071 90.5657 196.893 91.9972C197.273 92.4811 197.648 92.9678 198.019 93.4583Z" fill="#643F46"/>
<path fill-rule="evenodd" clip-rule="evenodd" d="M195.626 92.8126C194.745 93.3721 193.851 93.9167 192.942 94.4424C189.201 96.6062 185.308 98.5406 181.298 100.202C181.548 100.762 181.803 101.321 182.063 101.876C184.227 100.98 186.36 100.015 188.45 98.9717C191.31 97.5398 194.069 95.961 196.753 94.2695C196.382 93.7805 196.006 93.2942 195.626 92.8126Z" fill="#643F46"/>
<path fill-rule="evenodd" clip-rule="evenodd" d="M129.831 140.256C129.924 140.213 130.012 140.171 130.1 140.132V140.132C130.012 140.172 129.924 140.213 129.831 140.256Z" fill="#BAA7A2"/>
<path fill-rule="evenodd" clip-rule="evenodd" d="M129.812 140.264C127.045 136.473 124.277 132.676 121.51 128.884C112.874 117.058 104.229 105.238 95.5605 93.4356C96.4181 93.5325 97.271 93.6576 98.1286 93.8078C109.138 108.811 120.119 123.838 131.087 138.876C130.748 139.288 130.419 139.707 130.1 140.132C130.011 140.171 129.923 140.213 129.831 140.256C129.821 140.259 129.817 140.261 129.812 140.264Z" fill="#898989" fill-opacity="0.5"/>
<path fill-rule="evenodd" clip-rule="evenodd" d="M130.1 140.132V140.132C130.419 139.707 130.749 139.288 131.087 138.876C131.235 139.079 131.379 139.28 131.527 139.484C131.513 139.482 131.509 139.481 131.509 139.481V139.481C131.486 139.492 130.971 139.731 130.1 140.132Z" fill="#B38869"/>
<path fill-rule="evenodd" clip-rule="evenodd" d="M96.5563 91.669C95.7311 91.5605 94.906 91.4757 94.0763 91.4177C91.2903 87.6236 88.5044 83.835 85.7139 80.0441C86.3906 79.8578 87.0489 79.7118 87.6886 79.614C90.646 83.6301 93.6035 87.6491 96.5563 91.669Z" fill="#898989" fill-opacity="0.5"/>
<path fill-rule="evenodd" clip-rule="evenodd" d="M85.7147 80.0441C83.6566 77.2558 81.6031 74.4648 79.5449 71.6789C79.6237 71.6168 79.7025 71.5542 79.7813 71.4916C80.1939 71.1662 80.5925 70.844 80.9912 70.5242C83.2255 73.553 85.4598 76.5828 87.6895 79.6139C87.0498 79.7117 86.3915 79.8577 85.7147 80.0441Z" fill="#898989" fill-opacity="0.5"/>
<path fill-rule="evenodd" clip-rule="evenodd" d="M79.5446 71.6789C74.6588 65.0609 69.7637 58.4511 64.8594 51.847C65.7169 51.5966 66.3891 51.4395 66.8295 51.4019C69.62 55.1567 72.4013 58.9114 75.1826 62.6662C77.1202 65.2843 79.0532 67.9043 80.9909 70.5242C80.5922 70.8441 80.1936 71.1663 79.781 71.4917C79.7022 71.5542 79.6234 71.6168 79.5446 71.6789Z" fill="#898989" fill-opacity="0.5"/>
<path fill-rule="evenodd" clip-rule="evenodd" d="M131.536 139.495L131.508 139.481C131.508 139.481 131.512 139.482 131.526 139.485C131.531 139.487 131.531 139.491 131.536 139.495Z" fill="#917321"/>
<path fill-rule="evenodd" clip-rule="evenodd" d="M98.1276 93.8078C97.27 93.6576 96.4171 93.5325 95.5595 93.4356C95.0682 92.763 94.5722 92.0904 94.0762 91.4178C94.9059 91.4757 95.731 91.5605 96.5562 91.669C97.08 92.3815 97.6038 93.0953 98.1276 93.8078Z" fill="#49292C"/>
<path fill-rule="evenodd" clip-rule="evenodd" d="M205.301 124.23V124.229C205.57 124.088 205.825 123.964 206.052 123.858C205.825 123.965 205.574 124.089 205.301 124.23Z" fill="#BAA7A2"/>
<path fill-rule="evenodd" clip-rule="evenodd" d="M205.301 124.229C205.593 124.077 205.862 123.946 206.103 123.834C206.089 123.842 206.07 123.85 206.052 123.858C205.825 123.964 205.57 124.088 205.301 124.229Z" fill="#BA968D"/>
<path fill-rule="evenodd" clip-rule="evenodd" d="M206.799 123.547C206.882 123.518 206.961 123.494 207.031 123.474V123.474C206.961 123.494 206.882 123.518 206.799 123.547Z" fill="#BAA7A2"/>
<path fill-rule="evenodd" clip-rule="evenodd" d="M199.848 116.373C199.802 116.307 199.756 116.24 199.709 116.174C195.783 110.523 191.862 104.876 187.931 99.2295C188.102 99.1442 188.278 99.058 188.45 98.9718C188.835 98.7794 189.215 98.5847 189.595 98.3877C193.447 103.921 197.294 109.454 201.137 114.991C200.711 115.45 200.28 115.912 199.848 116.373Z" fill="#898989" fill-opacity="0.5"/>
<path fill-rule="evenodd" clip-rule="evenodd" d="M144.738 34.7633C144.822 34.7397 144.896 34.7216 144.965 34.7091C144.965 34.7091 144.965 34.7105 144.965 34.7114C144.901 34.723 144.822 34.7402 144.738 34.7633Z" fill="#BAA7A2"/>
<path fill-rule="evenodd" clip-rule="evenodd" d="M186.856 97.69C180.881 89.1056 174.897 80.529 168.898 71.9599C169.515 71.7601 170.131 71.5677 170.753 71.3809C176.561 79.6849 182.36 87.9954 188.15 96.3119C187.876 96.6902 187.603 97.0707 187.334 97.4555C187.176 97.5343 187.018 97.6122 186.856 97.69ZM144.683 34.7796C144.701 34.774 144.72 34.7685 144.738 34.7634C144.822 34.7402 144.9 34.723 144.965 34.7115C144.882 34.7258 144.789 34.7485 144.683 34.7796Z" fill="#898989" fill-opacity="0.5"/>
<path fill-rule="evenodd" clip-rule="evenodd" d="M187.334 97.4555C187.603 97.0707 187.876 96.6901 188.15 96.3119C188.275 96.4913 188.4 96.673 188.525 96.8524C188.131 97.0559 187.733 97.2571 187.334 97.4555Z" fill="#B38869"/>
<path fill-rule="evenodd" clip-rule="evenodd" d="M168.9 71.9599C160.361 59.7542 151.795 47.567 143.191 35.4049C143.813 35.1018 144.313 34.8913 144.684 34.7796C144.791 34.7485 144.883 34.7258 144.967 34.7115C148.295 39.4206 151.619 44.1298 154.938 48.8432C160.218 56.3476 165.493 63.8617 170.754 71.3809C170.133 71.5677 169.516 71.7601 168.9 71.9599Z" fill="#898989" fill-opacity="0.5"/>
<path fill-rule="evenodd" clip-rule="evenodd" d="M205.3 124.229C203.483 121.611 201.666 118.99 199.849 116.373C200.28 115.912 200.711 115.449 201.137 114.991C203.103 117.818 205.068 120.647 207.029 123.474C206.959 123.494 206.881 123.518 206.797 123.547C206.598 123.617 206.366 123.713 206.102 123.834C205.861 123.946 205.592 124.077 205.3 124.229Z" fill="#898989" fill-opacity="0.5"/>
<path fill-rule="evenodd" clip-rule="evenodd" d="M187.932 99.2295C187.575 98.7173 187.213 98.2018 186.856 97.69C187.019 97.6122 187.176 97.5343 187.334 97.4555C187.733 97.2571 188.131 97.0559 188.525 96.8524C188.882 97.3646 189.239 97.8755 189.596 98.3877C189.216 98.5847 188.836 98.7794 188.451 98.9718C188.28 99.058 188.103 99.1442 187.932 99.2295Z" fill="#49292C"/>
<path fill-rule="evenodd" clip-rule="evenodd" d="M141.563 129.396C134.558 120.135 127.545 110.883 120.518 101.639C121.644 102.122 122.78 102.598 123.915 103.06C130.331 111.503 136.732 119.952 143.129 128.408C142.601 128.727 142.077 129.056 141.563 129.396Z" fill="#898989" fill-opacity="0.5"/>
<path fill-rule="evenodd" clip-rule="evenodd" d="M149.486 139.868C148.577 138.671 147.673 137.474 146.769 136.278C145.035 133.984 143.302 131.689 141.563 129.396C142.078 129.056 142.602 128.727 143.13 128.408C145.643 131.731 148.155 135.055 150.668 138.378C150.093 139.015 149.713 139.528 149.486 139.868Z" fill="#898989" fill-opacity="0.5"/>
<path fill-rule="evenodd" clip-rule="evenodd" d="M121.692 100.131C120.538 99.6401 119.388 99.1409 118.238 98.6417C114.59 93.8426 110.933 89.0439 107.276 84.2508C107.878 84.477 108.421 84.6875 108.893 84.8747C109.468 85.1028 110.038 85.3383 110.608 85.5789C114.308 90.4257 118.002 95.2777 121.692 100.131ZM93.3506 66.0542C93.4618 66.0083 93.5777 65.9578 93.7029 65.9026C93.5777 65.9583 93.4618 66.0088 93.3506 66.0552" fill="#898989" fill-opacity="0.5"/>
<path fill-rule="evenodd" clip-rule="evenodd" d="M110.608 85.5789C110.038 85.3383 109.468 85.1028 108.893 84.8747C108.421 84.6875 107.878 84.477 107.276 84.2508C102.64 78.1792 98 72.1146 93.3506 66.0542C93.4618 66.0088 93.5777 65.9583 93.7029 65.9026C94.0969 65.726 94.5465 65.504 95.0518 65.2388C96.4888 67.112 97.9258 68.9843 99.3628 70.8621C103.118 75.7646 106.868 80.6685 110.608 85.5789Z" fill="#898989" fill-opacity="0.5"/>
<path fill-rule="evenodd" clip-rule="evenodd" d="M159.608 153.276C156.234 148.805 152.859 144.336 149.484 139.868C149.712 139.528 150.092 139.015 150.666 138.378C154.213 143.069 157.754 147.76 161.296 152.451C160.6 152.831 160.03 153.113 159.608 153.276Z" fill="#898989" fill-opacity="0.5"/>
<path fill-rule="evenodd" clip-rule="evenodd" d="M123.916 103.06C122.78 102.599 121.644 102.122 120.518 101.639C119.758 100.64 118.998 99.6406 118.237 98.6417C119.387 99.1409 120.537 99.6402 121.691 100.131C122.432 101.106 123.174 102.084 123.916 103.06Z" fill="#49292C"/>
<path fill-rule="evenodd" clip-rule="evenodd" d="M154.428 57.8011C150.159 57.8011 146.701 54.3407 146.701 50.0714C146.701 45.8049 150.159 42.3441 154.428 42.3441C158.698 42.3441 162.156 45.8049 162.156 50.0714C162.156 54.3407 158.698 57.8011 154.428 57.8011ZM154.428 37.5C147.285 37.5 141.5 43.2888 141.5 50.4265C141.5 55.4356 147.86 70.0346 151.656 78.3075C152.746 80.6735 156.106 80.6735 157.196 78.3075C160.997 70.0346 167.352 55.4356 167.352 50.4265C167.352 43.2888 161.567 37.5 154.428 37.5Z" fill="#E31837"/>
<mask id="path-43-outside-1_2042_4619" maskUnits="userSpaceOnUse" x="57" y="61.5" width="36" height="40" fill="black">
<rect fill="white" x="57" y="61.5" width="36" height="40"/>
<path fill-rule="evenodd" clip-rule="evenodd" d="M77.4644 94.2985C84.5762 93.123 90 86.9449 90 79.5C90 71.2157 83.2843 64.5 75 64.5C66.7157 64.5 60 71.2157 60 79.5C60 86.7483 65.1412 92.7959 71.9758 94.195L74.75 99L77.4644 94.2985Z"/>
</mask>
<path fill-rule="evenodd" clip-rule="evenodd" d="M77.4644 94.2985C84.5762 93.123 90 86.9449 90 79.5C90 71.2157 83.2843 64.5 75 64.5C66.7157 64.5 60 71.2157 60 79.5C60 86.7483 65.1412 92.7959 71.9758 94.195L74.75 99L77.4644 94.2985Z" fill="#006491"/>
<path d="M77.4644 94.2985L77.0567 91.832C76.3184 91.954 75.6735 92.4004 75.2993 93.0485L77.4644 94.2985ZM71.9758 94.195L74.1409 92.945C73.7834 92.3257 73.1778 91.8892 72.4772 91.7458L71.9758 94.195ZM74.75 99L72.5849 100.25C73.0315 101.024 73.8568 101.5 74.75 101.5C75.6432 101.5 76.4685 101.024 76.9151 100.25L74.75 99ZM87.5 79.5C87.5 85.7017 82.9813 90.8527 77.0567 91.832L77.8721 96.7651C86.1711 95.3933 92.5 88.1882 92.5 79.5H87.5ZM75 67C81.9036 67 87.5 72.5964 87.5 79.5H92.5C92.5 69.835 84.665 62 75 62V67ZM62.5 79.5C62.5 72.5964 68.0964 67 75 67V62C65.335 62 57.5 69.835 57.5 79.5H62.5ZM72.4772 91.7458C66.7827 90.5801 62.5 85.5374 62.5 79.5H57.5C57.5 87.9593 63.4997 95.0117 71.4745 96.6442L72.4772 91.7458ZM76.9151 97.75L74.1409 92.945L69.8108 95.445L72.5849 100.25L76.9151 97.75ZM75.2993 93.0485L72.5849 97.75L76.9151 100.25L79.6295 95.5485L75.2993 93.0485Z" fill="white" mask="url(#path-43-outside-1_2042_4619)"/>
<g clip-path="url(#clip0_2042_4619)">
<path d="M77.5391 74.5836C77.8271 74.5836 80.4825 74.5836 80.4825 74.5836V76.0057L79.7714 76.7167L81.6379 80.1977C82.9893 80.4915 83.4139 81.2732 83.6822 82.0496H80.838L78.7049 83.8272H74.0831L73.0165 82.4051H67.3281C67.3281 81.6705 68.3947 78.8499 70.1723 78.8499H73.9458C74.2422 78.8499 74.5075 79.0338 74.6116 79.3111L75.5051 81.694H77.9938C78.7197 81.1843 79.2195 80.5981 79.0294 79.8809L77.9845 76.8149L77.2828 76.0057L77.5391 74.5836ZM77.5391 74.5836L76.2503 73.2948" stroke="white" stroke-width="0.95" stroke-linecap="round" stroke-linejoin="round"/>
<path d="M68.7861 83.4731C68.9513 84.2836 69.6684 84.8938 70.5279 84.8938C71.3843 84.8938 72.0992 84.2881 72.2679 83.4819" stroke="white" stroke-width="0.95" stroke-linecap="round" stroke-linejoin="round"/>
<path d="M80.0381 84.0525C80.3517 84.5578 80.9112 84.8938 81.5493 84.8938C82.531 84.8938 83.3269 84.0978 83.3269 83.1161" stroke="white" stroke-width="0.95" stroke-linecap="round" stroke-linejoin="round"/>
<path fill-rule="evenodd" clip-rule="evenodd" d="M73.9938 79.0277H69.7275V72.2727H73.9938V72.9838V79.0277Z" stroke="white" stroke-width="0.95" stroke-linecap="round" stroke-linejoin="round"/>
</g>
<defs>
<clipPath id="clip0_2042_4619">
<rect width="18" height="18" fill="white" transform="translate(66.5 69)"/>
</clipPath>
</defs>
</svg>
