<svg width="271" height="60" fill="none" xmlns="http://www.w3.org/2000/svg"><g clip-path="url(#clip0_2_139)" fill-rule="evenodd" clip-rule="evenodd"><path d="M80.995 49.62h-4.748V34.053h4.792c4.95 0 7.906 2.898 7.906 7.756 0 3.88-2.73 7.81-7.95 7.81zm0-24.261H67.097a.83.83 0 0 0-.832.834v31.289c0 .455.37.827.832.827H81.04c10.954 0 18.035-6.474 18.035-16.5 0-9.993-7.098-16.45-18.079-16.45zm79.688 8.498c-3.836 0-6.954 2.108-8.346 4.2-1.021-2.787-3.334-4.2-6.867-4.2-3.911 0-6.872 1.979-7.905 3.308V35.28a.83.83 0 0 0-.831-.83h-7.231a.827.827 0 0 0-.829.83v22.2a.83.83 0 0 0 .829.828h7.231a.831.831 0 0 0 .831-.827V43.587l.001-.006c.523-.604 1.61-1.87 3.605-1.87 1.753 0 2.719.95 2.719 2.668v13.103a.83.83 0 0 0 .829.827h7.231a.832.832 0 0 0 .833-.827V43.587c.521-.61 1.609-1.876 3.651-1.876 1.73 0 2.721.972 2.721 2.668v13.103c0 .455.369.827.83.827h7.231a.83.83 0 0 0 .83-.827V41.02c0-4.62-2.613-7.164-7.363-7.164zm19.048.594H172.5a.831.831 0 0 0-.833.83v22.2c0 .456.373.828.833.828h7.231a.833.833 0 0 0 .832-.827V35.28a.832.832 0 0 0-.832-.83zm-3.398-11.71a4.998 4.998 0 0 0-4.992 4.988 4.997 4.997 0 0 0 4.992 4.992 4.997 4.997 0 0 0 4.99-4.992 4.997 4.997 0 0 0-4.99-4.987zm25.088 11.116c-4.609 0-7.116 2.073-8.197 3.308V35.28a.83.83 0 0 0-.832-.83h-7.231a.83.83 0 0 0-.83.83v22.2c0 .456.374.828.83.828h7.231a.833.833 0 0 0 .832-.827V43.587c.575-.654 1.653-1.876 3.801-1.876 2.298 0 3.461 1.147 3.461 3.404v12.367a.83.83 0 0 0 .832.827h7.228a.83.83 0 0 0 .831-.827V41.369c0-4.705-2.973-7.512-7.956-7.512zM113.41 50.463a4.295 4.295 0 0 1-4.295-4.305 4.29 4.29 0 0 1 4.295-4.291 4.293 4.293 0 0 1 4.298 4.29 4.299 4.299 0 0 1-4.298 4.306zm0-16.715c-6.957 0-12.597 5.64-12.597 12.587 0 6.965 5.64 12.602 12.597 12.602 6.958 0 12.595-5.637 12.595-12.602 0-6.946-5.637-12.587-12.595-12.587zM224.608 50.5a4.3 4.3 0 0 1-4.295-4.305 4.293 4.293 0 0 1 4.295-4.29 4.293 4.293 0 0 1 4.298 4.29 4.3 4.3 0 0 1-4.298 4.305zm0-16.715c-6.953 0-12.592 5.638-12.592 12.591 0 6.961 5.639 12.6 12.592 12.6 6.957 0 12.601-5.639 12.601-12.6 0-6.953-5.644-12.591-12.601-12.591zm19.547-7.039l-.002-.013-.005-.018c-.004-.016-.006-.036-.011-.051l-.002.001c-.557-2.482-3.257-4.276-5.92-3.726-2.69.557-4.456 3.06-3.935 5.58.432 2.078 2.284 3.524 4.429 3.656-.138.851-.89 1.611-1.515 1.963-.418.236-.167.686-.167.686l.553.82c.159.276.402.417.688.299 5.509-2.257 6.455-6.95 5.887-9.197zm6.409 14.802c-.022-.89 1.133-1.284 2.579-1.284 2.878 0 4.518.82 6.353 2.03a.822.822 0 0 0 1.177-.282l2.441-4.245a.831.831 0 0 0-.295-1.121c-2.006-1.197-4.945-2.743-10.047-2.743-7.359 0-11.298 3.463-10.639 8.442 1.157 8.752 14.765 5.753 14.553 8.739-.049.691-1.253 1.206-3.337 1.206-2.693 0-5.753-1.35-7.684-2.544a.822.822 0 0 0-.642-.098.822.822 0 0 0-.515.395l-2.82 4.7a.832.832 0 0 0 .256 1.102c2.709 1.828 7.08 3.057 10.876 3.057 7.366 0 11.613-3.165 11.615-8.365.001-9.594-13.811-6.62-13.871-8.99z" fill="#006E9A"/><path d="M58.665 17.556L42.441 1.33A3.601 3.601 0 0 0 39.877.269c-.969 0-1.879.377-2.564 1.062L1.06 37.584a3.629 3.629 0 0 0 0 5.127l16.224 16.227A3.608 3.608 0 0 0 19.849 60c.969 0 1.88-.378 2.564-1.062l36.253-36.255a3.63 3.63 0 0 0 0-5.127z" fill="#FFFFFE"/><path d="M43.249 23.4a4.694 4.694 0 0 1-3.323 1.375 4.693 4.693 0 0 1-3.324-1.375 4.695 4.695 0 0 1 0-6.646 4.695 4.695 0 0 1 6.647 0 4.698 4.698 0 0 1 0 6.645zm14.268-4.691L41.293 2.485a2.002 2.002 0 0 0-2.832 0L20.919 20.027l19.056 19.056 17.542-17.541a2.003 2.003 0 0 0 0-2.833z" fill="#D02139"/><path d="M23.403 36.947a4.68 4.68 0 0 1 3.323-1.377c1.202 0 2.407.458 3.322 1.377a4.67 4.67 0 0 1 1.38 3.324c0 1.2-.459 2.405-1.38 3.32a4.702 4.702 0 0 1-6.645 0 4.688 4.688 0 0 1-1.377-3.32c0-1.202.46-2.406 1.377-3.324zm-7.145 6.457a4.711 4.711 0 0 1-6.649 0 4.675 4.675 0 0 1-1.374-3.32c0-1.204.458-2.408 1.374-3.329a4.693 4.693 0 0 1 3.325-1.373 4.694 4.694 0 0 1 4.697 4.7 4.684 4.684 0 0 1-1.373 3.322zm-14.05-4.673a2.004 2.004 0 0 0 0 2.833L18.432 57.79a2 2 0 0 0 2.833 0l17.533-17.535-19.057-19.057L2.208 38.73zm264.814-3.745h.295c.197 0 .336-.032.416-.097a.303.303 0 0 0 .121-.248.308.308 0 0 0-.116-.25c-.077-.064-.208-.096-.394-.096h-.322v.69zm-.682-1.172h1.225c.347 0 .599.07.754.211a.73.73 0 0 1 .233.568.704.704 0 0 1-.178.481c-.118.136-.305.233-.56.295a.73.73 0 0 1 .231.128c.07.063.142.158.219.281.004.01.152.276.442.8h-.805c-.262-.526-.437-.84-.527-.943-.089-.103-.179-.154-.268-.154a.458.458 0 0 0-.084.01v1.087h-.682v-2.765zm3.229 1.382a2.02 2.02 0 0 0-.606-1.475 1.982 1.982 0 0 0-1.461-.612c-.571 0-1.058.204-1.462.611a2.02 2.02 0 0 0-.606 1.476c0 .576.202 1.068.606 1.475.404.408.891.612 1.462.612.57 0 1.057-.204 1.461-.612.404-.407.606-.9.606-1.475zm.497 0c0 .463-.115.894-.344 1.294-.23.4-.542.715-.938.945-.396.23-.824.346-1.282.346-.457 0-.883-.115-1.279-.346a2.53 2.53 0 0 1-.938-.945 2.562 2.562 0 0 1-.344-1.294c0-.46.115-.892.344-1.293.229-.4.542-.716.938-.946.396-.23.822-.346 1.279-.346.458 0 .886.116 1.282.346.396.23.708.546.938.946.229.401.344.832.344 1.293z" fill="#006E9A"/></g><defs><clipPath id="clip0_2_139"><path fill="#fff" d="M0 0h270.27v60H0z"/></clipPath></defs></svg>